<svg id="a6af5dac-51f8-482a-b959-4d96b33358d2" height="512" viewBox="0 0 64 64" width="512" xmlns="http://www.w3.org/2000/svg" xmlns:xlink="http://www.w3.org/1999/xlink" data-name="glyph copy 2"><linearGradient id="b0d94d7a-d578-4951-8533-192d3c5692e8" gradientUnits="userSpaceOnUse" x1="4" x2="60" y1="32" y2="32"><stop offset="0" stop-color="#ffa68d"/><stop offset="1" stop-color="#fd3a84"/></linearGradient><path d="m26.74989 5.78715a1.61054 1.61054 0 0 1 2.42.11l1.2 1.44a2.18981 2.18981 0 0 0 3.26008 0l1.21-1.46a1.60847 1.60847 0 0 1 2.41-.08 20.67231 20.67231 0 0 1 5.24 10.80008 20.14779 20.14779 0 0 0 -9.48997 5.69022v-.67999a1.99562 1.99562 0 1 0 -3-1.72 1.96778 1.96778 0 0 0 1 1.72c-.00015 1.48709.0002 4.534 0 6.01015a5.82725 5.82725 0 0 0 -4.12008 2.99l-2.04005-.66a16.06186 16.06186 0 0 1 -2.14-3.71012 20.26877 20.26877 0 0 1 -1.32-5.50011c-.75704-6.26166 3.145-12.83674 5.37002-14.95023zm-12.02026 33.16067a19.03574 19.03574 0 0 0 6.39014 1.07 14.62821 14.62821 0 0 0 5.46023-.93992l1.26-1.73015a5.78729 5.78729 0 0 1 -1.58006-4.84006c-1.40166-.45478-4.28877-1.39159-5.70012-1.85008a2.00087 2.00087 0 1 1 -.72-3.39008 1.98251 1.98251 0 0 1 1.34 1.49008l.63.2a15.523 15.523 0 0 1 -.98-2.01 21.05427 21.05427 0 0 1 -1.49-8.80023 20.29609 20.29609 0 0 0 -11.8903 1.67005 1.629 1.629 0 0 0 -.68 2.33l1.02 1.59005a2.13473 2.13473 0 0 1 -1 3.1c-.78318.37673-2.43329.65932-2.7 1.67008a1.59445 1.59445 0 0 0 .11 1.3 20.63338 20.63338 0 0 0 8.65014 8.34013 18.971 18.971 0 0 0 1.87997.80013zm20.63042 5.57006a16.59 16.59 0 0 0 .44-4.27l-1.25-1.73007a5.74464 5.74464 0 0 1 -5.10008 0c-.86639 1.19724-2.64883 3.66374-3.5201 4.87016a1.9866 1.9866 0 1 1 -1.62-1.19l.38-.52a20.33153 20.33153 0 0 1 -11.02027-.98991 20.31608 20.31608 0 0 0 -2.1 11.8301 1.6272 1.6272 0 0 0 2.00005 1.34c1.06519-.22279 2.64124-.96145 3.61-.13994 1.85361 1.16391-.25576 5.20813 2.88014 4.97005 6.11384-1.01291 13.39421-6.04218 15.30026-14.17039zm-.73-13.92027a3.79378 3.79378 0 1 0 -.59 5.94 3.799 3.799 0 0 0 .59001-5.94zm14.6403 8.35021a18.93476 18.93476 0 0 0 -5.59014-5.36015 16.68854 16.68854 0 0 0 -3.91-1.74l-2.03007.66a5.77072 5.77072 0 0 1 -1.58 4.84006c.87363 1.19247 2.65041 3.64855 3.5301 4.85014a1.99879 1.99879 0 1 1 -1.62 1.18995l-.38008-.53a20.05962 20.05962 0 0 1 -3.16994 8.51024 19.57986 19.57986 0 0 1 -1.19012 1.66 20.19754 20.19754 0 0 0 10.60018 5.65013 1.61021 1.61021 0 0 0 1.27-.29c1.376-1.09009.016-3.674 1.62016-4.67007 1.47625-1.21452 3.46044.86 4.92-.09 1.95263-1.36862.54971-10.95239-2.47008-14.6803zm10.64018-10.44021c-.2461-.98664-1.92272-1.29912-2.7-1.6701a2.1275 2.1275 0 0 1 -1-3.09l1.00994-1.60006a1.62277 1.62277 0 0 0 -.66-2.33c-3.95326-2.08279-12.02277-3.14587-17.89034.53022-2.60846 1.73086-2.98433 1.65438-5.67024 5.1197l.00011 2.1502a5.81907 5.81907 0 0 1 4.12007 2.99006c1.39933-.45712 4.2889-1.39448 5.70014-1.85a2.00106 2.00106 0 1 1 .61995 1.89992l-.63.2001a20.16348 20.16348 0 0 1 8.34028 7.29006 20.68691 20.68691 0 0 0 8.65005-8.33006 1.62123 1.62123 0 0 0 .11004-1.31004z" fill="url(#b0d94d7a-d578-4951-8533-192d3c5692e8)"/></svg>